<svg width="23" height="23" viewBox="0 0 23 23" fill="none" xmlns="http://www.w3.org/2000/svg">
<path d="M7.6666 18.2084C7.39507 18.2084 7.16763 18.1164 6.98426 17.9324C6.8009 17.7484 6.7089 17.521 6.70826 17.2501C6.70763 16.9792 6.79963 16.7518 6.98426 16.5678C7.1689 16.3838 7.39635 16.2918 7.6666 16.2918H13.5124C14.5187 16.2918 15.3933 15.9723 16.1363 15.3334C16.8794 14.6945 17.2506 13.8959 17.2499 12.9376C17.2493 11.9793 16.8781 11.1807 16.1363 10.5418C15.3946 9.90288 14.52 9.58343 13.5124 9.58343H7.47493L9.29576 11.4043C9.47146 11.58 9.55931 11.8036 9.55931 12.0751C9.55931 12.3466 9.47146 12.5702 9.29576 12.7459C9.12007 12.9216 8.89646 13.0095 8.62493 13.0095C8.3534 13.0095 8.12979 12.9216 7.9541 12.7459L4.5041 9.29593C4.40826 9.2001 4.34022 9.09628 4.29997 8.98447C4.25972 8.87267 4.24024 8.75288 4.24151 8.6251C4.24279 8.49732 4.26292 8.37753 4.30189 8.26572C4.34086 8.15392 4.40826 8.0501 4.5041 7.95426L7.9541 4.50426C8.12979 4.32857 8.3534 4.24072 8.62493 4.24072C8.89646 4.24072 9.12007 4.32857 9.29576 4.50426C9.47146 4.67996 9.55931 4.90357 9.55931 5.1751C9.55931 5.44663 9.47146 5.67024 9.29576 5.84593L7.47493 7.66676H13.5124C15.0617 7.66676 16.3916 8.16989 17.502 9.17614C18.6124 10.1824 19.1672 11.4362 19.1666 12.9376C19.166 14.439 18.6111 15.6928 17.502 16.6991C16.3929 17.7053 15.063 18.2084 13.5124 18.2084H7.6666Z" fill="black"/>
</svg>
